<svg width="720" height="480" xmlns="http://www.w3.org/2000/svg" style="background:#0f172a;border-radius:8px">
<defs>
<pattern id="g2" width="40" height="40" patternUnits="userSpaceOnUse">
<path d="M 40 0 L 0 0 0 40" fill="none" stroke="#1e293b" stroke-width="0.5"/>
</pattern>
</defs>
<rect width="720" height="480" fill="url(#g2)"/>

<!-- Legend -->
<text x="520" y="30" fill="#64748b" font-size="9" font-family="monospace" font-weight="600">LEGEND</text>
<rect x="520" y="40" width="14" height="14" rx="3" fill="rgba(76,29,149,0.4)" stroke="#a78bfa" stroke-width="1.5"/>
<text x="542" y="52" fill="#94a3b8" font-size="9" font-family="monospace">Entity</text>
<rect x="520" y="65" width="14" height="14" rx="3" fill="rgba(251,146,60,0.3)" stroke="#fb923c" stroke-width="1.5"/>
<text x="542" y="77" fill="#94a3b8" font-size="9" font-family="monospace">Join Table</text>
<line x1="520" y1="98" x2="540" y2="98" stroke="#64748b" stroke-width="1.5"/>
<text x="542" y="101" fill="#94a3b8" font-size="9" font-family="monospace">One-To-Many</text>
<line x1="520" y1="116" x2="540" y2="116" stroke="#64748b" stroke-width="1.5" stroke-dasharray="4,3"/>
<text x="542" y="119" fill="#94a3b8" font-size="9" font-family="monospace">Many-To-Many</text>

<!-- MenuItem -->
<rect x="30" y="30" width="180" height="120" rx="6" fill="rgba(76,29,149,0.4)" stroke="#a78bfa" stroke-width="1.5"/>
<text x="120" y="52" fill="#a78bfa" font-size="10" font-family="monospace" text-anchor="middle" font-weight="600">menu_item</text>
<line x1="40" y1="62" x2="200" y2="62" stroke="#a78bfa" stroke-width="0.5"/>
<text x="40" y="78" fill="#64748b" font-size="8" font-family="monospace">id (PK) — TEXT</text>
<text x="40" y="94" fill="#64748b" font-size="8" font-family="monospace">price — DECIMAL</text>
<text x="40" y="110" fill="#64748b" font-size="8" font-family="monospace">media_url — TEXT</text>
<text x="40" y="126" fill="#64748b" font-size="8" font-family="monospace">category_id (FK) — TEXT</text>
<text x="40" y="142" fill="#64748b" font-size="8" font-family="monospace">preparation_time — INT</text>

<!-- Category -->
<rect x="280" y="30" width="180" height="110" rx="6" fill="rgba(76,29,149,0.4)" stroke="#a78bfa" stroke-width="1.5"/>
<text x="370" y="52" fill="#a78bfa" font-size="10" font-family="monospace" text-anchor="middle" font-weight="600">category</text>
<line x1="290" y1="62" x2="450" y2="62" stroke="#a78bfa" stroke-width="0.5"/>
<text x="290" y="78" fill="#64748b" font-size="8" font-family="monospace">id (PK) — TEXT</text>
<text x="290" y="94" fill="#64748b" font-size="8" font-family="monospace">media_url — TEXT</text>
<text x="290" y="110" fill="#64748b" font-size="8" font-family="monospace">menu_priority — INT</text>
<text x="290" y="126" fill="#64748b" font-size="8" font-family="monospace">parent_category_id (FK) — TEXT</text>

<!-- Translation -->
<rect x="30" y="210" width="180" height="90" rx="6" fill="rgba(251,146,60,0.3)" stroke="#fb923c" stroke-width="1.5"/>
<text x="120" y="232" fill="#fb923c" font-size="10" font-family="monospace" text-anchor="middle" font-weight="600">translation</text>
<line x1="40" y1="242" x2="200" y2="242" stroke="#fb923c" stroke-width="0.5"/>
<text x="40" y="258" fill="#64748b" font-size="8" font-family="monospace">id (PK) — SERIAL</text>
<text x="40" y="274" fill="#64748b" font-size="8" font-family="monospace">value — TEXT</text>

<!-- Allergen -->
<rect x="280" y="210" width="180" height="100" rx="6" fill="rgba(76,29,149,0.4)" stroke="#a78bfa" stroke-width="1.5"/>
<text x="370" y="232" fill="#a78bfa" font-size="10" font-family="monospace" text-anchor="middle" font-weight="600">allergen</text>
<line x1="290" y1="242" x2="450" y2="242" stroke="#a78bfa" stroke-width="0.5"/>
<text x="290" y="258" fill="#64748b" font-size="8" font-family="monospace">id (PK) — TEXT</text>
<text x="290" y="274" fill="#64748b" font-size="8" font-family="monospace">media_url — TEXT</text>
<text x="290" y="290" fill="#64748b" font-size="8" font-family="monospace">inclusive — BOOLEAN</text>

<!-- Language -->
<rect x="520" y="210" width="160" height="80" rx="6" fill="rgba(76,29,149,0.4)" stroke="#a78bfa" stroke-width="1.5"/>
<text x="600" y="232" fill="#a78bfa" font-size="10" font-family="monospace" text-anchor="middle" font-weight="600">language</text>
<line x1="530" y1="242" x2="670" y2="242" stroke="#a78bfa" stroke-width="0.5"/>
<text x="530" y="258" fill="#64748b" font-size="8" font-family="monospace">id (PK) — TEXT</text>

<!-- Order -->
<rect x="30" y="360" width="180" height="110" rx="6" fill="rgba(76,29,149,0.4)" stroke="#a78bfa" stroke-width="1.5"/>
<text x="120" y="382" fill="#a78bfa" font-size="10" font-family="monospace" text-anchor="middle" font-weight="600">app_order</text>
<line x1="40" y1="392" x2="200" y2="392" stroke="#a78bfa" stroke-width="0.5"/>
<text x="40" y="408" fill="#64748b" font-size="8" font-family="monospace">id (PK) — BIGSERIAL</text>
<text x="40" y="424" fill="#64748b" font-size="8" font-family="monospace">user_id (FK)</text>
<text x="40" y="440" fill="#64748b" font-size="8" font-family="monospace">service_id (FK)</text>
<text x="40" y="456" fill="#64748b" font-size="8" font-family="monospace">created_on — TIMESTAMP</text>

<!-- User -->
<rect x="280" y="360" width="180" height="110" rx="6" fill="rgba(76,29,149,0.4)" stroke="#a78bfa" stroke-width="1.5"/>
<text x="370" y="382" fill="#a78bfa" font-size="10" font-family="monospace" text-anchor="middle" font-weight="600">app_user</text>
<line x1="290" y1="392" x2="450" y2="392" stroke="#a78bfa" stroke-width="0.5"/>
<text x="290" y="408" fill="#64748b" font-size="8" font-family="monospace">id (PK)</text>
<text x="290" y="424" fill="#64748b" font-size="8" font-family="monospace">username</text>
<text x="290" y="440" fill="#64748b" font-size="8" font-family="monospace">password (bcrypt)</text>
<text x="290" y="456" fill="#64748b" font-size="8" font-family="monospace">privilege_id (FK)</text>

<!-- Relationships -->
<line x1="210" y1="90" x2="280" y2="90" stroke="#64748b" stroke-width="1.5"/>
<text x="245" y="84" fill="#64748b" font-size="8" font-family="monospace" text-anchor="middle">M:1</text>
<line x1="120" y1="150" x2="120" y2="210" stroke="#64748b" stroke-width="1.5"/>
<text x="130" y="183" fill="#64748b" font-size="8" font-family="monospace">1:M</text>
<line x1="210" y1="260" x2="280" y2="260" stroke="#64748b" stroke-width="1.5" stroke-dasharray="4,3"/>
<text x="245" y="254" fill="#64748b" font-size="8" font-family="monospace" text-anchor="middle">M:M</text>
<line x1="370" y1="310" x2="370" y2="360" stroke="#64748b" stroke-width="1.5"/>
<text x="380" y="338" fill="#64748b" font-size="8" font-family="monospace">1:M</text>
<line x1="120" y1="300" x2="120" y2="360" stroke="#64748b" stroke-width="1.5"/>
<text x="130" y="333" fill="#64748b" font-size="8" font-family="monospace">1:M</text>
<line x1="370" y1="140" x2="370" y2="210" stroke="#64748b" stroke-width="1.5"/>
<text x="380" y="178" fill="#64748b" font-size="8" font-family="monospace">1:M</text>
</svg>